<svg width="63" height="21" viewBox="0 0 63 21" fill="none" xmlns="http://www.w3.org/2000/svg">
<path d="M26.9676 0.957671L16.5866 8.74691C16.0987 6.83104 14.9712 5.12806 13.3817 3.9064C11.7921 2.68473 9.8311 2.01384 7.80757 1.99946H0.357147V19.9038H7.80757C9.84188 19.9306 11.8239 19.275 13.422 18.0468C15.0201 16.8185 16.1373 15.0921 16.5866 13.1563L26.9676 20.9456L37.3485 13.1563V19.9038H49.0581V16.2696H41.3345V1.98734H37.0754V8.73477L27.2284 16.524L25.105 14.7069L29.8981 11.0728L34.9519 7.1842L32.0215 4.84622L22.1745 12.3689L20.0511 10.5518L29.8981 3.28353L26.9676 0.945557V0.957671ZM4.34313 5.62151H7.53442C8.19479 5.62276 8.84713 5.76326 9.4467 6.03338C10.0557 6.30664 10.6041 6.69347 11.061 7.17209C11.5417 7.67585 11.9209 8.26356 12.1785 8.90434C12.708 10.2663 12.708 11.7702 12.1785 13.1321C11.9376 13.771 11.58 14.3621 11.123 14.8765C10.6789 15.3822 10.1338 15.7943 9.52117 16.0879C8.89011 16.3851 8.19796 16.5384 7.49715 16.5361H4.34313V5.63362V5.62151ZM62.3447 16.2696V19.9038H50.6475V1.98734H54.9067V16.2696H62.3571H62.3447Z" fill="white" fill-opacity="0.8"/>
</svg>
