<svg width="121" height="24" viewBox="0 0 121 24" fill="none" xmlns="http://www.w3.org/2000/svg">
<path fill-rule="evenodd" clip-rule="evenodd" d="M10.7091 16.242L14.0499 19.6555L11.263 22.6239C10.3592 23.5864 8.89371 23.5864 7.98998 22.6239L1.03497 15.2164C0.131246 14.2535 0.131246 12.693 1.03497 11.7304C1.93899 10.7679 3.40422 10.7679 4.30795 11.7304L9.62647 17.395L10.7091 16.242ZM11.5775 15.317L14.5365 12.1655L17.8092 15.6514L15.0845 18.5535L11.5775 15.317Z" fill="#CECCD3"/>
<path fill-rule="evenodd" clip-rule="evenodd" d="M24.9657 18.4881L21.4785 15.2303L29.6732 6.50241C30.5769 5.53988 32.0422 5.53988 32.9462 6.50241C33.8499 7.46494 33.8499 9.02551 32.9462 9.98835L24.9657 18.4881ZM23.8812 19.6432L21.0826 22.6239C20.1786 23.5864 18.7133 23.5864 17.8096 22.6239L5.94484 9.98712C5.04111 9.02428 5.04111 7.46371 5.94484 6.50118C6.84857 5.53834 8.3138 5.53834 9.21782 6.50118L19.4461 17.395L20.5965 16.1697L23.8812 19.6432Z" fill="#CECCD3"/>
<path fill-rule="evenodd" clip-rule="evenodd" d="M19.9373 14.431L23.1948 10.9289L29.2658 17.3949L34.5832 11.7316C35.4872 10.7691 36.9525 10.7691 37.8562 11.7316C38.7599 12.6944 38.7599 14.255 37.8562 15.2175L30.9023 22.6238C29.9986 23.5864 28.5334 23.5864 27.6296 22.6238L19.9373 14.431ZM18.5878 12.9937L10.8548 4.75756C9.9511 3.79503 9.9511 2.23446 10.8548 1.27193C11.7588 0.309095 13.2241 0.309095 14.1278 1.27193L21.8688 9.51662L18.5878 12.9937Z" fill="#CECCD3"/>
<path fill-rule="evenodd" clip-rule="evenodd" d="M28.0364 1.27317C27.1327 0.310637 25.6675 0.310637 24.7634 1.27317L14.5363 12.1657L17.8093 15.6516L28.0364 4.7591C28.9401 3.79626 28.9401 2.2357 28.0364 1.27317Z" fill="#CECCD3"/>
<path fill-rule="evenodd" clip-rule="evenodd" d="M50.5148 2.97556H47.6688V20.7809H58.0965V18.092H50.5148V2.97556ZM64.2559 8.32929C65.9862 8.32929 67.1474 9.08026 67.7849 10.0008L67.9215 8.57154H70.3804V20.7809H67.9215L67.7849 19.3517C67.1474 20.2722 65.9862 21.0232 64.2559 21.0232C61.1367 21.0232 59.0193 18.3342 59.0193 14.6762C59.0193 10.994 61.1367 8.32929 64.2559 8.32929ZM64.8478 10.8971C63.0719 10.8971 61.7969 12.3749 61.7969 14.6762C61.7969 16.9776 63.0719 18.4553 64.8478 18.4553C66.2139 18.4553 67.0336 17.6801 67.6483 16.6385V12.714C67.0336 11.6723 66.2139 10.8971 64.8478 10.8971ZM77.2684 4.47751H74.5362V8.57154H72.3733V11.0425H74.5362V16.4689C74.5362 19.4243 76.1983 21.0232 78.8166 21.0232C79.955 21.0232 80.7974 20.684 81.3666 20.2964L80.638 18.0193C80.2965 18.2373 79.7956 18.4069 79.067 18.4069C77.997 18.4069 77.2684 17.6801 77.2684 16.4447V11.0425H80.7291V8.57154H77.2684V4.47751ZM86.6836 4.47751H83.9514V8.57154H81.7885V11.0425H83.9514V16.4689C83.9514 19.4243 85.6135 21.0232 88.2318 21.0232C89.3702 21.0232 90.2126 20.684 90.7818 20.2964L90.0532 18.0193C89.7117 18.2373 89.2108 18.4069 88.4822 18.4069C87.4121 18.4069 86.6836 17.6801 86.6836 16.4447V11.0425H90.1443V8.57154H86.6836V4.47751ZM95.3474 8.57154H92.6153V20.7809H95.3474V8.57154ZM93.9813 2.87866C93.0251 2.87866 92.2965 3.62964 92.2965 4.67131C92.2965 5.71299 93.0251 6.46396 93.9813 6.46396C94.9603 6.46396 95.6889 5.71299 95.6889 4.67131C95.6889 3.62964 94.9603 2.87866 93.9813 2.87866ZM103.601 8.32929C100.072 8.32929 97.7273 10.994 97.7273 14.6762C97.7273 18.3342 100.095 21.0232 103.624 21.0232C105.696 21.0232 107.267 20.03 108.292 18.3342L106.334 16.7111C105.787 17.6801 104.899 18.4796 103.647 18.4796C101.621 18.4796 100.505 16.808 100.505 14.6762C100.505 12.5202 101.575 10.8729 103.624 10.8729C104.899 10.8729 105.742 11.6481 106.265 12.6171L108.246 11.0183C107.222 9.32251 105.696 8.32929 103.601 8.32929ZM114.975 8.32929C118.504 8.32929 120.234 11.1394 120.234 14.5551V15.5726H112.129C112.197 17.5106 113.29 18.5765 115.202 18.5765C116.546 18.5765 117.525 17.9466 118.048 17.1714L119.938 18.8187C118.8 20.2722 117.297 21.0232 115.18 21.0232C111.628 21.0232 109.351 18.3584 109.351 14.7005C109.351 11.0183 111.673 8.32929 114.975 8.32929ZM114.929 10.6549C113.313 10.6549 112.22 11.7935 112.129 13.4892H117.547C117.479 11.8177 116.568 10.6549 114.929 10.6549Z" fill="white" fill-opacity="0.8"/>
</svg>
