<svg width="81" height="26" viewBox="0 0 81 26" fill="none" xmlns="http://www.w3.org/2000/svg">
<g clip-path="url(#clip0_138_8631)">
<path d="M49.0791 14.4525C49.0791 14.4525 48.9187 13.8303 48.9187 13.3692V6.15437H51.6531V20.0509L42.8987 12.3906C42.4303 11.9701 42.1531 11.5005 42.1531 11.5005C42.1531 11.5005 42.2919 12.0183 42.2919 12.4663L42.2895 19.7373H39.5535V5.89526L48.2275 13.4017C48.6927 13.818 49.0791 14.4525 49.0791 14.4525Z" fill="white" fill-opacity="0.8"/>
<path d="M73.8381 6.15552C78.1713 6.15552 79.2809 7.96122 79.2809 10.5565C79.2809 12.4374 77.9701 14.2803 75.3265 14.4984L75.0369 14.5132C75.0369 14.5132 75.2925 14.561 75.5597 14.8328L80.3573 19.7368H76.6501L69.9525 12.5507H73.2873C76.2745 12.5507 76.3613 10.8875 76.3817 10.4682C76.4377 9.38863 76.1109 8.52551 73.8329 8.52551H70.0197V19.7368H67.1781V6.15552H73.8381Z" fill="white" fill-opacity="0.8"/>
<path d="M52.8832 13.1401C52.8832 7.45035 57.39 5.95532 61.1784 5.95532C62.6952 5.95532 64.0384 6.09904 65.452 6.41563L65.456 9.30086C64.6432 9.03669 63.0108 8.45676 61.1788 8.45676C57.5872 8.45676 55.8432 9.93108 55.8432 13.1397C55.8432 15.7679 57.7232 17.4422 61.1788 17.4422C63.0108 17.4422 64.8452 16.9814 65.7336 16.6353L65.7284 19.4343C64.3164 19.7492 62.6956 19.9436 61.1788 19.9436C57.1324 19.944 52.8832 17.8657 52.8832 13.1401Z" fill="white" fill-opacity="0.8"/>
<path d="M22.1121 6.50488L24.7789 9.15892C24.7061 9.19315 24.6221 9.23542 24.5233 9.28783C24.3689 9.37279 24.1849 9.4865 23.9645 9.64796C23.5249 9.96709 22.9521 10.4768 22.2193 11.3125L17.0073 17.1409C16.1141 18.1384 15.2065 18.9288 14.3625 19.3469L11.6941 16.692C11.7669 16.6561 11.8509 16.6163 11.9481 16.5614C12.1025 16.4781 12.2865 16.3627 12.5069 16.2038C12.9453 15.8817 13.5197 15.3749 14.2533 14.538L19.4641 8.71932C20.3577 7.72306 21.2669 6.92292 22.1121 6.50488Z" fill="white" fill-opacity="0.8"/>
<path d="M11.7888 20.5937C12.9676 20.5937 14.0512 20.3469 14.7864 19.944C15.1224 19.7589 15.602 19.4402 16.0144 19.1004C16.4252 18.7618 17.0076 18.2343 17.5 17.681L22.7172 11.8691C24.0332 10.4045 24.824 9.95223 25.304 9.77428L27.98 12.4528C27.4216 13.0839 20.7612 20.5798 20.7612 20.5798C20.3072 21.098 19.8288 21.598 19.5036 21.9129C19.1912 22.2172 18.6568 22.6708 18.3808 22.8842C16.8144 24.0969 14.722 25.0805 11.9044 25.0805C5.51998 25.0805 0.357178 19.5894 0.357178 13.2665C0.357178 5.42275 6.15678 0.871291 11.4388 0.871291C13.058 0.820569 14.3572 1.10842 15.3844 1.477C16.3336 1.8181 17.0504 2.23064 17.5704 2.5113C16.9556 2.92765 16.3608 3.49531 15.3804 4.6019L14.3092 5.81711C14.0628 5.71694 12.97 5.31412 11.5672 5.35935C8.17798 5.46502 4.47118 8.36801 4.60478 13.1304C4.72918 17.5834 8.20278 20.5937 11.7888 20.5937Z" fill="white" fill-opacity="0.8"/>
<path d="M21.6532 5.94724C21.316 6.13365 20.8376 6.45151 20.4228 6.79134C20.0132 7.12991 19.4312 7.65742 18.9372 8.20945L13.7212 14.0226C12.4052 15.4872 11.614 15.9378 11.1344 16.1162L8.4584 13.4402C9.0184 12.8074 15.6776 5.3128 15.6776 5.3128C16.1328 4.79458 16.61 4.29455 16.9352 3.97838C17.2476 3.67405 17.782 3.2222 18.0604 3.00706C19.624 1.79438 21.7192 0.810791 24.5368 0.810791C30.9208 0.810791 36.0812 6.3023 36.0812 12.6235C36.0812 20.4698 30.2828 25.0187 24.9996 25.0187C23.3816 25.0707 22.0812 24.7829 21.0556 24.4113C20.104 24.0715 19.3844 23.6564 18.8656 23.377C19.5152 22.9138 20.0712 22.4057 21.0592 21.2902L22.1288 20.075C22.3752 20.1735 23.4684 20.5767 24.8724 20.5328C28.2604 20.4259 31.9684 17.5199 31.8348 12.7588C31.7092 8.30793 28.2332 5.29631 24.6492 5.29631C23.4684 5.29631 22.3896 5.54443 21.6532 5.94724Z" fill="white" fill-opacity="0.8"/>
</g>
<defs>
<clipPath id="clip0_138_8631">
<rect width="80" height="24.2697" fill="white" transform="translate(0.357178 0.810791)"/>
</clipPath>
</defs>
</svg>
