<svg width="144" height="14" viewBox="0 0 144 14" fill="none" xmlns="http://www.w3.org/2000/svg">
<g clip-path="url(#clip0_138_8615)">
<path d="M27.9558 12.6435C27.9558 12.5469 27.9558 12.402 27.9558 12.3055C27.9013 12.3055 24.3586 12.4986 22.6145 12.4986C20.3255 12.4986 17.0554 12.4503 17.0554 12.4503L2.01276 12.3537C2.01276 12.3055 2.01276 12.1123 2.01276 12.064L17.1099 12.0157C17.1099 12.0157 20.38 12.064 22.669 12.064C24.4131 12.064 27.9013 12.064 27.9558 12.064C27.9558 11.9192 27.9013 11.6777 27.9013 11.4845C27.8468 11.4845 24.3586 11.726 22.669 11.726C20.38 11.726 17.1099 11.5811 17.1099 11.5811H13.2402L8.11698 11.4363H2.06726C2.06726 11.388 2.12177 11.1948 2.12177 11.1465C2.33977 11.1948 2.50328 11.2431 3.2663 11.2431C4.24734 11.2431 4.68336 11.05 4.68336 11.05C4.68336 11.05 5.39189 11.2431 6.3184 11.2431C6.75443 11.2431 7.73551 10.8568 8.33499 11.0017C9.31607 11.2431 9.69754 10.8568 9.69754 10.8568C9.69754 10.8568 9.91555 11.0983 10.3516 11.1948C10.6786 11.2431 11.1146 11.05 11.1146 11.05C11.1146 11.05 11.6596 11.388 13.2402 11.388C15.1478 11.388 15.6928 10.4705 15.6928 10.4705H15.7473C15.7473 10.4705 15.6928 10.712 15.8018 10.9051C16.0198 11.2914 16.6193 11.3397 16.6193 11.3397C16.5648 10.2774 17.0554 9.55306 17.0554 9.55306H17.1099L17.0009 9.84274C16.7828 10.6154 17.1644 11.2914 17.1644 11.2914L17.3278 11.1948C17.3278 11.1948 17.1644 10.712 17.3278 10.0359C17.4913 9.3599 17.7638 9.02184 17.7638 9.02184H17.8729C17.8729 9.02184 17.7093 9.55306 17.7093 9.93932C17.7093 10.2774 17.9274 11.0983 18.6359 11.3397C19.1809 11.5328 19.6169 11.0983 19.6169 11.0983C19.6169 11.0983 20.816 11.388 21.797 11.388C24.1406 11.388 24.6856 11.05 24.6856 11.05C24.6856 11.05 24.8491 11.2914 26.0482 11.2914C26.7567 11.2914 27.3017 11.2431 27.6287 11.1948C27.7377 11.1948 27.7923 11.1948 27.8468 11.1465C27.8468 10.9534 27.7923 10.8085 27.7377 10.6154C27.0837 7.38005 24.9582 4.57936 22.0151 2.7927L21.8515 3.22729C24.7401 4.91737 26.8657 7.57321 27.4652 10.712C27.1382 10.8085 26.6477 10.9534 26.0482 10.9534C25.1217 10.9534 24.9037 10.712 24.9037 10.712C24.9037 10.712 24.5766 10.9051 23.9771 10.9051C23.4321 10.9051 23.0506 10.5671 23.0506 10.5671C23.0506 10.5671 22.5055 11.05 21.5245 11.05C20.38 11.05 19.7804 10.4222 19.5624 10.1325C19.3444 9.84274 19.2354 9.60132 19.2354 9.60132H19.1809C19.1809 9.6979 19.2354 9.84274 19.2899 9.98764C19.4534 10.374 19.5624 10.4705 19.6169 10.5671C19.6714 10.6154 19.7259 10.7602 19.5624 10.8085C19.4534 10.8568 19.3989 10.7602 19.3444 10.712C19.2899 10.6154 19.0719 10.374 18.9629 9.98764C18.7994 9.55306 18.7994 9.26332 18.7449 9.02184H18.6359C18.5814 9.215 18.5814 9.55306 18.5814 9.93932C18.6359 10.374 18.7449 10.6636 18.7994 10.7602C18.7994 10.7602 18.8539 10.8085 18.8539 10.8568C18.8539 11.0017 18.7449 11.05 18.6359 11.05C18.5269 11.05 18.4179 10.9534 18.3634 10.8568C17.8729 10.1325 18.4724 8.68384 18.6359 8.24927C18.9084 7.62153 18.9629 6.99374 18.9629 6.99374C18.9629 6.99374 19.2899 6.51089 19.4534 6.17284C19.6714 5.73827 19.8349 5.35197 19.9985 5.2071C20.2165 5.01395 20.5979 4.53107 20.9795 3.90332C21.034 3.80675 21.361 3.13071 21.4155 2.98585C21.47 2.88927 21.5245 2.74441 21.579 2.64783C21.7425 2.06837 21.906 1.39234 21.906 1.29577C21.906 1.1509 21.6335 1.05432 21.6335 1.05432C21.6335 1.05432 21.361 0.957749 21.1975 0.957749C21.0885 0.957749 20.9795 1.05432 20.8705 1.10261C20.707 1.1509 20.6525 1.10261 20.6525 1.10261C20.6525 1.10261 20.4344 1.00604 20.3255 1.05432C20.2165 1.05432 20.1075 1.19919 19.9985 1.19919C19.8349 1.24748 19.7804 1.24748 19.7804 1.24748C19.7804 1.24748 19.6169 1.19919 19.5079 1.19919C19.3989 1.24748 19.2899 1.29577 19.0719 1.44063C17.5458 0.957749 15.9653 0.716309 14.3302 0.716309C6.86344 0.716309 0.759212 6.028 0.650208 12.6435C0.650208 12.6917 0.650208 12.9815 0.650208 12.9815H27.9558C27.9558 12.9815 27.9558 12.6917 27.9558 12.6435ZM10.5696 10.2291C10.5151 10.2291 10.5696 10.1808 10.5151 10.1808C10.8966 9.11842 11.7686 6.94547 13.1857 5.30368C13.3492 5.35197 13.4582 5.44854 13.6217 5.49683C12.5861 6.51089 11.2236 8.49069 10.5696 10.2291ZM11.3871 10.5671C11.6596 9.60132 12.3682 7.57321 13.8942 5.64169C14.0577 5.73827 14.1667 5.78656 14.3302 5.88316C13.2947 7.09032 12.0412 9.02184 11.4961 10.6154C11.4416 10.6154 11.4416 10.5671 11.3871 10.5671ZM12.4772 10.8085C12.4227 10.8085 12.4772 10.8085 12.4227 10.8085C12.6406 10.0359 13.2402 8.00779 14.6572 6.028C14.8207 6.12458 14.9298 6.17284 15.0388 6.26942C14.0577 7.57321 12.9677 9.3599 12.4772 10.8085ZM13.5127 10.8085C13.4582 10.8085 13.4582 10.8085 13.4582 10.8085C13.6762 10.0842 14.1667 8.29753 15.3658 6.51089C15.5293 6.60747 15.6928 6.70405 15.7473 6.80063C14.8752 7.95953 13.9487 9.50474 13.5127 10.8085ZM17.1099 7.57321C16.8373 7.57321 16.4558 7.47663 16.3468 7.28347C16.4013 7.62153 16.8373 7.91121 17.2189 7.91121C17.1099 7.91121 17.0554 7.95953 16.9463 7.95953C16.4558 7.95953 16.0198 7.57321 16.0198 7.13863C16.0198 7.09032 16.0198 6.99374 16.0198 6.94547C16.4013 7.23521 17.2189 7.62153 17.7093 7.04205V7.09032C17.6548 7.33179 17.3823 7.57321 17.1099 7.57321ZM18.6359 5.68998C18.6359 5.83485 18.5269 5.88316 18.4179 5.93142C18.3634 5.97974 18.1999 6.028 18.1999 6.07626H18.1454C18.1454 6.07626 18.0909 6.028 18.0364 6.028C18.0364 5.97974 18.0364 5.97974 18.0364 5.97974V5.93142V5.83485C18.0364 5.83485 17.9819 5.73827 18.0364 5.64169C18.0364 5.49683 18.1999 5.40026 18.1999 5.40026H18.2544C18.2544 5.40026 18.1999 5.49683 18.1454 5.59341C18.1454 5.64169 18.0909 5.78656 18.1454 5.88316V5.97974L18.1999 6.028L18.2544 5.97974C18.3634 5.93142 18.3634 5.88316 18.3634 5.88316C18.3634 5.88316 18.2544 5.78656 18.3089 5.68998C18.3634 5.59341 18.5269 5.59341 18.5269 5.59341C18.5814 5.44854 18.5269 5.35197 18.5269 5.35197L18.6359 5.40026C18.5814 5.35197 18.6359 5.49683 18.6359 5.68998ZM19.3444 1.58549C19.5079 1.5372 19.5624 1.44063 19.7259 1.39234C19.8895 1.34405 19.9985 1.39234 20.1075 1.39234C20.2165 1.39234 20.38 1.24748 20.4889 1.24748C20.5979 1.24748 20.6525 1.29577 20.7615 1.29577C20.816 1.39234 21.143 1.19919 21.1975 1.19919C21.252 1.19919 21.47 1.19919 21.4155 1.39234C21.361 1.5372 21.252 1.9718 21.034 2.55126C20.9795 2.69612 20.8705 2.88927 20.7615 3.08243C20.6525 3.27558 20.5434 3.51702 20.38 3.71017C19.7804 4.57936 19.1809 4.3862 18.0364 4.86909C17.1099 5.25539 16.7283 5.49683 16.6193 5.64169C16.5103 5.54512 16.4558 5.54512 16.3468 5.49683C16.5103 5.35197 16.8918 5.11052 17.6548 4.77251C18.4724 4.3862 19.8349 3.90332 20.1075 3.46873C20.1075 3.42044 20.1075 3.42044 20.1075 3.37215C19.7804 3.56531 19.5079 3.66188 19.3989 3.75846C18.0909 4.33792 17.6003 4.48278 17.0009 4.77251C16.7283 4.91737 16.2923 5.11052 16.0198 5.30368C15.9653 5.25539 15.8563 5.2071 15.8018 5.15881C16.0743 4.96566 16.4558 4.77251 16.8373 4.57936C17.4368 4.33792 17.9274 4.09648 19.3444 3.37215C19.4534 3.32386 20.162 2.93756 20.707 2.55126C20.707 2.50297 20.707 2.45468 20.7615 2.40639C20.271 2.64783 18.6904 3.42044 18.3634 3.56531C17.0554 4.14477 17.1099 4.09648 16.5103 4.3862C16.1288 4.57936 15.7473 4.77251 15.4748 4.96566C15.4203 4.91737 15.3113 4.86909 15.2568 4.8208C15.5838 4.62765 15.8563 4.43449 16.2923 4.24134C16.8918 3.95161 16.9463 3.90332 18.3089 3.32386C18.9629 3.03414 20.162 2.30982 20.816 1.9718C20.816 1.92351 20.816 1.92351 20.816 1.87523C20.162 2.21324 18.2544 3.08243 17.9819 3.22729C16.6738 3.75846 16.5103 3.80675 15.9108 4.09648C15.5838 4.24134 15.2568 4.43449 14.9843 4.57936C14.9298 4.53107 14.8752 4.48278 14.8207 4.43449C15.0388 4.28963 15.4203 4.04819 15.9108 3.80675C16.5103 3.51702 16.6193 3.46873 17.9274 2.88927C18.0909 2.84098 18.7449 2.50297 19.3444 2.16495C19.5079 2.06837 19.7259 1.9718 19.8895 1.87523C20.053 1.77865 20.162 1.68207 20.271 1.63378L20.2165 1.58549C19.944 1.68207 19.5624 1.87522 19.4534 1.92351C18.7449 2.26153 17.8729 2.64783 17.6003 2.74441C16.2923 3.32386 16.1288 3.37215 15.5293 3.66188C15.2023 3.80675 14.8207 3.9999 14.6027 4.19305C14.5482 4.14477 14.4937 4.09648 14.4392 4.04819C14.7117 3.85503 15.0933 3.6136 15.5293 3.42044C16.1288 3.13071 16.2378 3.08243 17.5458 2.50297C17.7638 2.40639 17.9819 2.30982 18.1454 2.21324C18.1999 2.21324 18.7994 1.92351 19.3444 1.58549ZM14.8753 1.29577C16.1288 1.29577 17.3823 1.44063 18.5269 1.77865C18.3089 1.92351 17.9819 2.06837 17.5458 2.26153C16.0198 2.93756 15.8563 2.98585 15.2023 3.27558C14.7662 3.46873 14.4392 3.66188 14.1667 3.85503C14.1667 3.85503 13.8942 3.51702 13.7307 3.42044C13.5672 3.32386 13.1857 3.22729 13.0767 3.179C12.8587 3.08243 12.8042 2.98585 12.4772 2.88927C12.2047 2.7927 11.9867 2.84098 11.8231 2.84098C11.6596 2.7927 11.4961 2.74441 11.2236 2.74441C11.0601 2.74441 10.8421 2.84098 10.6786 2.84098C10.4606 2.84098 10.2971 2.7927 10.1336 2.7927C9.97006 2.84099 9.75204 2.98585 9.53402 2.98585C9.37051 3.03414 9.15255 2.98585 9.04355 2.98585C8.93454 3.03414 8.66202 3.22729 8.49851 3.27558C8.3895 3.32386 8.06247 3.32386 8.11698 3.56531C8.11698 3.75846 8.60751 3.80675 8.60751 3.80675C8.60751 3.80675 10.7331 4.04819 12.8042 5.01395C12.5316 5.35197 12.2047 5.68998 11.9866 6.07626C11.8231 6.028 11.6051 5.97974 11.4961 5.97974C11.2781 5.97974 11.0601 6.07626 10.8966 6.028C10.5696 6.028 10.5696 5.97974 10.1881 6.028C9.91555 6.07626 9.91555 6.12458 9.69754 6.17284C9.53402 6.22116 9.37051 6.17284 9.09805 6.22116C8.98904 6.26942 8.77103 6.46258 8.60751 6.51089C8.49851 6.55916 8.28049 6.55916 8.11698 6.65574C8.00797 6.75232 8.00797 6.8489 7.73551 6.94547C7.57199 7.04205 7.46299 6.99374 7.29947 7.13863C7.19046 7.33179 7.19046 7.47663 6.91794 7.66979C6.59092 7.91121 6.59092 8.10437 6.64542 8.15269C6.75443 8.34584 7.24497 8.15269 7.24497 8.15269C7.24497 8.15269 8.98904 7.62153 11.0601 7.52495C10.5151 8.49069 10.0791 9.40816 9.80654 10.0359C9.75204 10.1808 9.69754 10.3256 9.64303 10.4222C9.58853 10.4222 9.58853 10.4222 9.58853 10.4222C9.47952 10.3256 9.47952 10.1808 9.53402 9.84274C9.58853 9.50474 9.91555 8.82869 10.0246 8.68384H9.91555C9.80655 8.82869 9.47952 9.3599 9.42502 9.45648C9.31607 9.64964 9.26156 9.6979 9.04355 10.1325C8.98904 10.2291 8.88003 10.4222 8.71652 10.4222C8.60751 10.4222 8.49851 10.374 8.49851 10.2774C8.49851 10.2291 8.55301 10.1325 8.60751 10.1325C8.88003 9.74616 9.09805 9.3599 9.15255 9.16674H9.04355C9.04355 9.16674 8.28049 10.712 6.64542 10.712C6.10042 10.712 5.50089 10.4705 5.50089 10.4705C5.50089 10.4705 4.73786 10.7602 3.70233 10.7602C2.88479 10.7602 2.39427 10.6154 2.17626 10.5671C3.32081 5.35197 8.3895 1.29577 14.8753 1.29577Z" fill="white" fill-opacity="0.8"/>
<path d="M52.6994 12.6917L52.5904 12.6435C51.9364 12.3537 51.7184 11.5328 51.3914 10.8085L48.0668 2.98584H44.9056V3.22728L45.0692 3.27557C45.0692 3.27557 45.2327 3.32386 45.2872 3.37215C45.4506 3.46872 45.6141 3.66187 45.3961 4.14476C45.3961 4.38619 45.2872 4.57935 45.2872 4.57935L42.671 10.8085C42.3985 11.4846 42.1805 12.3537 41.5265 12.6435L41.3085 12.74V12.9815H44.8511V12.74L44.5786 12.6435C44.2516 12.5469 44.1971 12.2571 44.5241 11.4363L44.9056 10.3256H48.6663C48.7753 10.5671 48.8843 10.9051 49.0478 11.388C49.2113 11.8708 49.4838 12.4986 49.1023 12.6917L48.8843 12.7883V13.0298H52.6994V12.6917ZM48.1213 8.68383H45.6141L46.8677 5.5934L48.1213 8.68383Z" fill="white" fill-opacity="0.8"/>
<path d="M75.7 2.98584V3.22728L75.9725 3.32386C76.4085 3.46872 76.354 4.38619 76.354 4.96565V11.0017C76.354 11.4846 76.354 12.4986 75.9725 12.6435L75.7 12.74V12.9815H79.2967V12.74L79.0242 12.6435C78.5881 12.4986 78.6426 11.4846 78.6426 11.0017V4.96565C78.6426 4.14476 78.7516 3.42044 79.0242 3.32386L79.2967 3.22728V2.98584H75.7Z" fill="white" fill-opacity="0.8"/>
<path d="M62.1824 2.98584V3.22728L62.4549 3.32386C62.891 3.46872 62.8365 4.38619 62.8365 4.96565V11.0017C62.8365 11.4846 62.8365 12.4986 62.4549 12.6435L62.1824 12.74V12.9815H65.7797V12.74L65.5072 12.6435C65.0711 12.4986 65.1257 11.4846 65.1257 11.0017V4.96565C65.1257 4.14476 65.2347 3.42044 65.5072 3.32386L65.7797 3.22728V2.98584H62.1824Z" fill="white" fill-opacity="0.8"/>
<path d="M41.9632 2.11673C41.1457 1.39241 39.8921 1.0061 38.5296 1.0061H33.8969V1.24755L34.1149 1.29584C34.7144 1.53727 34.6599 2.84105 34.6599 3.80681V10.1325V10.374C34.6599 11.0983 34.6599 12.4021 34.1149 12.5953L33.8969 12.6919V12.9333H38.1481V12.6919L37.9846 12.5953C37.2215 12.1606 37.2215 11.1949 37.2215 10.1808V8.05616L37.6576 8.20106C37.6576 8.20106 38.366 8.44248 39.0201 8.44248C40.9822 8.44248 43.1077 7.23527 43.1077 4.62771C43.1077 3.66195 42.7263 2.79276 41.9632 2.11673ZM37.8211 7.525L37.4395 7.57327H37.2215V3.0825C37.494 3.03421 37.8211 3.03421 38.257 3.03421C39.1291 3.03421 39.8376 3.22736 40.2191 3.61367C40.6007 3.95168 40.7642 4.38627 40.7642 5.01402C40.7642 6.51095 39.2381 7.42842 37.8211 7.525Z" fill="white" fill-opacity="0.8"/>
<path d="M99.8993 1.00619H97.9916H92.5412V1.29592L92.8682 1.3925C93.3588 1.58565 93.3588 2.69627 93.3588 3.32402V10.5673C93.3588 11.1467 93.3588 12.3539 92.8682 12.5471L92.5412 12.6436V12.9334H96.629V12.6436L96.302 12.5471C95.8115 12.3539 95.8115 11.195 95.8115 10.5673V8.2011H98.2096C98.2096 8.2011 99.2452 8.10452 99.4087 8.49084L99.4632 8.63573L99.7358 8.68399L99.8993 5.49698H99.5178L99.4632 5.69014C99.3542 5.93157 98.4277 6.02815 98.1551 5.97989H95.757C95.757 4.91753 95.757 3.61375 95.757 3.03429H98.7002C99.4087 3.03429 99.7903 3.17916 99.8993 3.51718L99.9532 3.71032H100.28L101.043 0.861328C101.152 0.957905 100.171 1.00619 99.8993 1.00619Z" fill="white" fill-opacity="0.8"/>
<path d="M60.9833 10.2773L60.9288 10.3256C60.8198 10.4222 60.7108 10.4705 60.7108 10.4705C60.0568 10.8568 58.9667 11.2914 57.8769 11.2914C57.0049 11.2914 56.2963 11.05 55.6968 10.5671C54.9883 9.93932 54.6068 8.92527 54.6068 7.76637C54.6068 5.93142 55.8058 4.67591 57.5499 4.67591C58.3674 4.67591 59.1847 4.91735 60.0023 5.40023L60.2203 5.54509L60.6563 5.78654V5.35194V3.37213V3.17898L60.3293 3.13069C59.2392 2.88925 58.3674 2.74438 57.6044 2.74438C56.0783 2.74438 54.7703 3.22726 53.7893 4.09646C52.7537 5.01393 52.1542 6.41426 52.1542 7.95948C52.1542 9.55301 52.6992 10.8568 53.7348 11.7743C54.7703 12.6917 56.2963 13.1746 58.0404 13.1746C58.9124 13.1746 59.7297 13.0297 60.3838 12.6917H60.4383L60.5473 12.6434L60.6018 12.5469L61.3649 10.2291H60.9833V10.2773Z" fill="white" fill-opacity="0.8"/>
<path d="M88.8343 10.2773L88.5073 10.4705C87.8533 10.8568 86.7632 11.2914 85.6731 11.2914C84.801 11.2914 84.0925 11.05 83.4929 10.5671C82.7844 9.93932 82.4029 8.92527 82.4029 7.76637C82.4029 5.93142 83.602 4.67591 85.3461 4.67591C86.1636 4.67591 86.9812 4.91735 87.7988 5.40023L88.4528 5.78654V3.37213V3.17898L88.1803 3.13069C87.0902 2.88925 86.2181 2.74438 85.4551 2.74438C83.929 2.74438 82.6209 3.22726 81.6398 4.09646C80.6042 5.01393 80.0047 6.41426 80.0047 7.95948C80.0047 9.55301 80.5497 10.8568 81.5853 11.7743C82.6209 12.6917 84.147 13.1746 85.8911 13.1746C86.7632 13.1746 87.5807 13.0297 88.2348 12.6917L88.3983 12.6434L89.2159 10.2291H88.8343V10.2773Z" fill="white" fill-opacity="0.8"/>
<path d="M73.7917 2.98598H70.7946H67.1973V3.22742L67.4699 3.32399C67.9059 3.46886 67.8514 4.38633 67.8514 4.96579V11.0018C67.8514 11.4847 67.8514 12.4987 67.4699 12.6436L67.1973 12.7402V12.9816H70.7946V12.7402L70.5221 12.6436C70.0861 12.4987 70.1406 11.4847 70.1406 11.0018V9.02199H72.1027C72.1027 9.02199 72.9742 8.97373 73.0832 9.26341L73.1377 9.40831L73.3557 9.45657L73.5192 6.80072H73.2467L73.1922 6.94562C73.1377 7.13878 72.3207 7.23536 72.1027 7.18704H70.0861C70.0861 6.31788 70.0861 5.20723 70.0861 4.72435H72.7562C73.3557 4.72435 73.6827 4.86922 73.7917 5.11065L73.8462 5.25552H74.1188L74.7728 2.8894C74.8818 2.8894 74.0098 2.98598 73.7917 2.98598Z" fill="white" fill-opacity="0.8"/>
<path d="M120.009 2.98603V3.22747L120.227 3.32405C120.718 3.61378 120.772 4.04837 120.772 4.86927V9.45663C119.246 7.5251 115.868 2.93774 115.868 2.93774H113.252V3.17919L113.47 3.27576C113.96 3.56549 114.015 4.04837 114.015 4.86927V10.857C114.015 11.6779 114.015 12.3056 113.47 12.5954L113.306 12.692V12.9334H116.631V12.692L116.413 12.5954C115.922 12.4988 115.922 11.6779 115.922 10.857V6.51105L119.192 10.6638C119.791 11.4365 120.772 12.5471 121.808 12.8368C122.626 13.0783 122.789 13.03 122.789 13.03V4.91756C122.789 4.09666 122.789 3.61378 123.334 3.32405L123.552 3.22747V2.98603H120.009Z" fill="white" fill-opacity="0.8"/>
<path d="M133.417 4.43468C132.327 3.46891 130.692 2.93774 128.676 2.93774H124.588V3.17919L124.806 3.22747L124.915 3.27576C125.405 3.42062 125.296 4.43468 125.296 4.96585V11.0018C125.296 11.7262 125.296 12.354 124.697 12.692L124.533 12.7885V12.9817H128.567C132.272 12.9817 134.889 10.9053 134.889 7.91142C134.889 6.51105 134.398 5.30386 133.417 4.43468ZM131.509 10.4707C130.746 11.0984 129.711 11.4847 128.403 11.4847C128.131 11.4847 127.967 11.4365 127.64 11.3882V4.62783C128.076 4.53125 128.294 4.48296 128.676 4.48296C129.929 4.48296 130.855 4.77269 131.509 5.35215C132.163 5.93163 132.49 6.89737 132.49 8.05626C132.49 9.02205 132.109 9.89121 131.509 10.4707Z" fill="white" fill-opacity="0.8"/>
<path d="M111.234 11.1465V4.86908C111.234 4.14476 111.234 3.46872 111.779 3.32386L111.997 3.27557L111.834 2.98584H108.128V3.22728L108.346 3.27557C108.891 3.46872 108.836 4.24133 108.836 4.7725V9.55304C108.836 10.0359 108.836 10.2774 108.564 10.6154C108.128 11.1465 107.31 11.4846 106.438 11.4846C105.73 11.4846 105.239 11.3397 104.858 11.0017C104.367 10.6154 104.149 9.89104 104.149 8.97356V4.72421C104.149 4.14476 104.149 3.37215 104.64 3.22728L104.858 3.17899V2.98584H101.043V3.22728L101.261 3.27557C101.751 3.42044 101.806 4.33791 101.751 5.06223V9.16672C101.751 10.1808 101.751 11.1948 102.678 12.1123C103.441 12.8366 104.585 13.2229 105.894 13.2229C106.819 13.2229 107.964 12.7883 108.782 12.2089V12.9815H111.888V12.74L111.67 12.6917C111.234 12.4986 111.18 11.8708 111.234 11.1465Z" fill="white" fill-opacity="0.8"/>
<path d="M143.064 9.93938C143.064 10.712 142.683 11.4846 141.974 12.0641C141.156 12.7884 140.012 13.1747 138.758 13.1747C137.777 13.1747 136.851 13.0298 135.979 12.7401H135.924L135.815 12.6918V12.5952V12.5469L135.379 10.7603L135.325 10.4705L135.27 10.2291H135.543L135.924 10.6154C136.742 11.2914 137.886 11.5812 138.922 11.5812C139.63 11.5812 140.666 11.1466 140.666 10.4222C140.666 9.60133 139.794 9.21507 138.649 8.73217C137.287 8.1527 135.652 7.42838 135.652 5.59344C135.652 3.51705 137.832 2.79272 139.685 2.79272C140.502 2.79272 141.265 2.8893 141.974 3.13074H142.029L142.192 3.17903V3.32389V3.37218V4.62767V5.06227V5.352L141.811 5.11055L141.429 4.9174C141.102 4.72425 140.284 4.43452 139.576 4.43452C139.303 4.43452 138.704 4.48281 138.322 4.82083C138.159 4.96569 138.05 5.15884 138.05 5.44857C138.05 6.1729 139.031 6.60748 140.066 7.04206C141.374 7.62154 143.064 8.34585 143.064 9.93938Z" fill="white" fill-opacity="0.8"/>
</g>
<defs>
<clipPath id="clip0_138_8615">
<rect width="143" height="13" fill="white" transform="translate(0.357178 0.445557)"/>
</clipPath>
</defs>
</svg>
