<svg width="68" height="22" viewBox="0 0 68 22" fill="none" xmlns="http://www.w3.org/2000/svg">
<g clip-path="url(#clip0_138_8604)">
<path d="M16.9861 21.4455L54.2397 18.0447H13.7571L16.9861 21.4455Z" fill="white" fill-opacity="0.8"/>
<path d="M62.877 4.01636C62.1127 4.03516 61.3699 4.28611 60.7378 4.73903V4.27142H58.2354V15.8342H60.7378V9.07506C60.7202 8.77893 60.7604 8.48215 60.8559 8.203C60.9514 7.92385 61.1001 7.66827 61.293 7.452C61.4859 7.23574 61.7187 7.06338 61.9773 6.94556C62.2358 6.82775 62.5146 6.76696 62.7963 6.76696C63.078 6.76696 63.3567 6.82775 63.6153 6.94556C63.8738 7.06338 64.1067 7.23574 64.2996 7.452C64.4924 7.66827 64.6412 7.92385 64.7367 8.203C64.8322 8.48215 64.8723 8.77893 64.8547 9.07506V15.8767H67.3571V9.07506C67.3571 6.26939 65.5408 4.01636 62.877 4.01636Z" fill="white" fill-opacity="0.8"/>
<path d="M52.4639 3.97388C49.5578 3.97388 47.4994 6.65201 47.4994 10.0528C47.4994 13.6237 50.0825 16.1318 52.706 16.1318C54.0379 16.1318 55.6928 15.6642 57.1054 13.5387L54.8855 12.1783C53.1904 14.814 50.3247 13.4961 50.0018 10.818H57.1861C57.8319 6.73703 55.2892 3.97388 52.4639 3.97388ZM50.1632 8.56497C50.6879 5.88683 54.159 5.71679 54.6434 8.56497H50.1632Z" fill="white" fill-opacity="0.8"/>
<path d="M41.7843 12.4383C41.762 12.9682 41.8414 13.4974 42.0175 13.9943C42.1937 14.4912 42.4631 14.9456 42.8097 15.3304C43.1562 15.7153 43.5728 16.0226 44.0346 16.2342C44.4964 16.4458 44.994 16.5572 45.4975 16.5618C46.3483 16.5304 47.1792 16.2825 47.9192 15.8391L46.3048 13.5436C46.0569 13.7299 45.7616 13.8335 45.4572 13.8412C45.2909 13.8362 45.1273 13.7952 44.9767 13.7207C44.8261 13.6462 44.6917 13.5398 44.5819 13.4082C44.472 13.2766 44.3892 13.1225 44.3384 12.9556C44.2876 12.7888 44.27 12.6127 44.2867 12.4383V7.46464H46.4258V4.70148H44.2867V1.81079H41.7843V4.70148H40.4524V7.46464H41.7843V12.4383Z" fill="white" fill-opacity="0.8"/>
<path d="M35.3506 16.1318C36.1149 16.113 36.8577 15.8621 37.4898 15.4091V15.8342H39.9922V4.27148H37.4898V11.0731C37.5074 11.3692 37.4672 11.666 37.3717 11.9452C37.2763 12.2243 37.1275 12.4799 36.9346 12.6962C36.7417 12.9124 36.5089 13.0848 36.2503 13.2026C35.9918 13.3204 35.713 13.3812 35.4313 13.3812C35.1496 13.3812 34.8709 13.3204 34.6123 13.2026C34.3538 13.0848 34.1209 12.9124 33.928 12.6962C33.7352 12.4799 33.5864 12.2243 33.4909 11.9452C33.3954 11.666 33.3553 11.3692 33.3729 11.0731V4.27148H30.8705V11.0731C30.8705 13.8788 32.6867 16.1318 35.3506 16.1318Z" fill="white" fill-opacity="0.8"/>
<path d="M23.9685 11.1156L27.6817 15.8767H31.1528L26.1884 9.71276L30.4667 4.27147H26.9956L23.9685 8.30993V0.445557H21.4257V15.8767H23.9685V11.1156Z" fill="white" fill-opacity="0.8"/>
<path d="M17.5108 15.3241V15.8342H20.0132V4.27145H17.5108V4.78157C16.8288 4.26326 16.0108 3.98101 15.1698 3.97388C12.3445 3.97388 10.165 6.69452 10.165 10.0528C10.165 13.4111 12.3042 16.1318 15.1698 16.1318C16.0118 16.1313 16.8317 15.8484 17.5108 15.3241ZM12.7078 10.0953C12.7078 8.2674 13.7168 6.82205 15.1295 6.82205C16.5421 6.82205 17.5108 8.2674 17.5108 10.0953C17.5108 11.9233 16.5421 13.3686 15.1295 13.3686C13.7168 13.3686 12.7078 11.9233 12.7078 10.0953Z" fill="white" fill-opacity="0.8"/>
<path d="M9.35775 6.35454C9.35668 5.03579 8.85881 3.77136 7.97344 2.83886C7.08807 1.90636 5.88756 1.38199 4.63546 1.38086H0.357147V15.8343H2.98064V11.3707H4.79691L7.98546 15.8343H11.2547L7.38004 10.4355C7.99838 9.97436 8.50133 9.36216 8.84578 8.6514C9.19022 7.94063 9.3659 7.1525 9.35775 6.35454ZM4.67582 8.65009H2.98064V4.14402H4.67582C5.24316 4.14402 5.78726 4.38139 6.18843 4.80392C6.5896 5.22644 6.81498 5.79951 6.81498 6.39705C6.81498 6.9946 6.5896 7.56766 6.18843 7.99019C5.78726 8.41272 5.24316 8.65009 4.67582 8.65009Z" fill="white" fill-opacity="0.8"/>
</g>
<defs>
<clipPath id="clip0_138_8604">
<rect width="67" height="21" fill="white" transform="translate(0.357147 0.445557)"/>
</clipPath>
</defs>
</svg>
