<svg width="88" height="18" viewBox="0 0 88 18" fill="none" xmlns="http://www.w3.org/2000/svg">
<g clip-path="url(#clip0_138_8594)">
<path d="M58.2131 15.1286C59.3663 15.1538 60.4822 14.7112 61.3161 13.8979L62.8557 15.5895C61.8384 16.6558 60.4323 17.4455 58.2406 17.4455C54.4857 17.4455 52.0622 14.9041 52.0622 11.4648C52.0471 10.694 52.1811 9.92766 52.4565 9.20974C52.7319 8.49181 53.1433 7.83635 53.6672 7.28085C54.1911 6.72536 54.8171 6.28075 55.5096 5.97244C56.202 5.66414 56.9472 5.49821 57.7025 5.48413H57.9107C61.6381 5.48413 63.7513 8.37826 63.5667 12.3948H54.7449C55.0591 14.0623 56.206 15.1245 58.2131 15.1245V15.1286ZM60.8997 10.4667C60.664 8.91139 59.7528 7.76496 57.9264 7.76496C57.1592 7.71922 56.4036 7.9729 55.8128 8.47458C55.2221 8.97626 54.8403 9.68841 54.7449 10.4667H60.8997Z" fill="white" fill-opacity="0.8"/>
<path d="M0.357147 15.0045L7.1404 7.97357H0.518186V5.76489H10.2826V8.01766L3.49936 15.0486H10.3729V17.2532H0.357147V15.0045Z" fill="white" fill-opacity="0.8"/>
<path d="M17.989 15.1286C19.1421 15.1538 20.258 14.7112 21.0919 13.8979L22.6316 15.5895C21.6143 16.6558 20.2082 17.4455 18.0165 17.4455C14.2615 17.4455 11.8381 14.9041 11.8381 11.4648C11.823 10.6946 11.9567 9.92897 12.2316 9.21156C12.5065 8.49414 12.9172 7.83903 13.4403 7.28365C13.9633 6.72826 14.5885 6.28348 15.28 5.97471C15.9715 5.66595 16.7158 5.49925 17.4705 5.48413H17.6787C21.4061 5.48413 23.5193 8.37826 23.3347 12.3948H14.5208C14.835 14.0623 15.9819 15.1245 17.989 15.1245V15.1286ZM20.6756 10.4667C20.4399 8.91139 19.5287 7.76496 17.7022 7.76496C16.935 7.71922 16.1794 7.9729 15.5887 8.47458C14.9979 8.97626 14.6161 9.68841 14.5208 10.4667H20.6756Z" fill="white" fill-opacity="0.8"/>
<path d="M37.9734 11.4769C37.9734 7.80113 40.6639 5.50427 43.6254 5.50427C44.336 5.49489 45.04 5.64433 45.688 5.94209C46.336 6.23986 46.9123 6.67873 47.3764 7.22792V0.445557H49.7724V17.2211H47.3764V15.6177C46.921 16.1899 46.3453 16.6502 45.6919 16.9646C45.0385 17.2789 44.3242 17.4392 43.6018 17.4335C42.8565 17.4278 42.1196 17.2722 41.4331 16.9758C40.7467 16.6794 40.1242 16.2478 39.6012 15.7059C39.0782 15.1639 38.6649 14.5221 38.3849 13.8172C38.1049 13.1122 37.9637 12.3578 37.9694 11.5972C37.9694 11.5491 37.9694 11.505 37.9694 11.4609L37.9734 11.4769ZM47.51 11.4368C47.4949 10.4639 47.1038 9.53649 46.4217 8.85664C45.7396 8.17678 44.8218 7.79959 43.8684 7.80726C42.915 7.81493 42.0032 8.20683 41.3317 8.89758C40.6601 9.58832 40.2833 10.5219 40.2833 11.495C40.2833 12.468 40.6601 13.4016 41.3317 14.0923C42.0032 14.7831 42.915 15.175 43.8684 15.1826C44.8218 15.1903 45.7396 14.8131 46.4217 14.1333C47.1038 13.4534 47.4949 12.526 47.51 11.5531V11.4368Z" fill="white" fill-opacity="0.8"/>
<path d="M65.1183 14.784L67.2864 13.6335C67.574 14.155 67.9955 14.5866 68.5056 14.8818C69.0157 15.1771 69.595 15.3248 70.1811 15.3091C71.5362 15.3091 72.2393 14.5996 72.2393 13.7939C72.2393 12.8759 70.9274 12.6675 69.4899 12.3709C67.5692 11.97 65.5621 11.3126 65.5621 8.9476C65.5621 7.13176 67.255 5.45621 69.9258 5.47625C72.0272 5.47625 73.5865 6.32605 74.4703 7.70497L72.4867 8.83136C72.2085 8.41104 71.8299 8.07007 71.3866 7.84071C70.9433 7.61135 70.45 7.50117 69.9533 7.52058C68.665 7.52058 68.0091 8.16595 68.0091 8.8995C68.0091 9.72525 69.0499 9.95774 70.676 10.3225C72.5299 10.7234 74.6313 11.3567 74.6313 13.7458C74.6313 15.3492 73.2762 17.4696 70.0633 17.4456C67.7066 17.4456 66.0609 16.4796 65.1143 14.78" fill="white" fill-opacity="0.8"/>
<path d="M81.1433 12.1183L79.2422 14.2308V17.2211H76.8463V0.445557H79.2422V11.4288L84.3287 5.72874H87.247L82.8362 10.6472L87.357 17.2211H84.6469L81.1433 12.1183Z" fill="white" fill-opacity="0.8"/>
<path d="M30.7305 5.50035C27.8829 5.50035 25.4987 7.38434 25.4987 10.511V17.2212H27.9418V10.8076C27.9418 8.9236 29.0023 7.79721 30.813 7.79721C32.6237 7.79721 33.5271 8.9236 33.5271 10.8076V17.2212H35.9584V10.5069C35.9584 7.38033 33.5742 5.49634 30.7266 5.49634" fill="white" fill-opacity="0.8"/>
</g>
<defs>
<clipPath id="clip0_138_8594">
<rect width="87" height="17" fill="white" transform="translate(0.357147 0.445557)"/>
</clipPath>
</defs>
</svg>
