<svg width="55" height="21" viewBox="0 0 55 21" fill="none" xmlns="http://www.w3.org/2000/svg">
<path d="M5.83233 6.05088H0.357178L0.357178 0.945557H17.3734V6.05088H11.8971V20.9456H5.83233V6.05088ZM18.315 0.945557H34.8604V6.05088H24.3803V8.51354H34.8604V13.3176H24.3803V15.8402H34.8604V20.9456H18.315V0.945557ZM35.8607 0.945557H45.8114C52.3475 0.945557 54.6429 5.87072 54.6429 10.9159C54.6429 17.0419 51.4628 20.9456 44.6335 20.9456H35.8607V0.945557ZM41.926 15.8402H44.28C48.0482 15.8402 48.5793 12.7177 48.5793 10.856C48.5793 9.59417 48.1671 6.11099 43.8092 6.11099H41.8656L41.926 15.8402Z" fill="white" fill-opacity="0.8"/>
</svg>
